<mxfile host="app.diagrams.net" modified="2023-05-02T15:48:12.287Z" agent="Mozilla/5.0 (Macintosh; Intel Mac OS X 10_15_7) AppleWebKit/605.1.15 (KHTML, like Gecko) Version/16.4 Safari/605.1.15" etag="ObfuOloYFVe14lMb-kL6" version="21.2.4" type="device">
  <diagram name="Page-1" id="2YBvvXClWsGukQMizWep">
    <mxGraphModel dx="822" dy="904" grid="1" gridSize="10" guides="1" tooltips="1" connect="1" arrows="1" fold="1" page="1" pageScale="1" pageWidth="850" pageHeight="1100" math="0" shadow="0">
      <root>
        <mxCell id="0" />
        <mxCell id="1" parent="0" />
        <mxCell id="aM9ryv3xv72pqoxQDRHE-1" value="&lt;font style=&quot;font-size: 8px;&quot;&gt;Government_interface&lt;/font&gt;" style="shape=umlLifeline;perimeter=lifelinePerimeter;whiteSpace=wrap;html=1;container=0;dropTarget=0;collapsible=0;recursiveResize=0;outlineConnect=0;portConstraint=eastwest;newEdgeStyle={&quot;edgeStyle&quot;:&quot;elbowEdgeStyle&quot;,&quot;elbow&quot;:&quot;vertical&quot;,&quot;curved&quot;:0,&quot;rounded&quot;:0};fillColor=default;" parent="1" vertex="1">
          <mxGeometry x="40" y="40" width="100" height="560" as="geometry" />
        </mxCell>
        <mxCell id="aM9ryv3xv72pqoxQDRHE-3" value="" style="html=1;verticalAlign=bottom;startArrow=oval;endArrow=block;startSize=8;edgeStyle=elbowEdgeStyle;elbow=vertical;curved=0;rounded=0;" parent="aM9ryv3xv72pqoxQDRHE-1" target="aM9ryv3xv72pqoxQDRHE-1" edge="1">
          <mxGeometry relative="1" as="geometry">
            <mxPoint x="-15" y="70" as="sourcePoint" />
          </mxGeometry>
        </mxCell>
        <mxCell id="aM9ryv3xv72pqoxQDRHE-5" value="&lt;font style=&quot;font-size: 9px;&quot;&gt;System&lt;/font&gt;" style="shape=umlLifeline;perimeter=lifelinePerimeter;whiteSpace=wrap;html=1;container=0;dropTarget=0;collapsible=0;recursiveResize=0;outlineConnect=0;portConstraint=eastwest;newEdgeStyle={&quot;edgeStyle&quot;:&quot;elbowEdgeStyle&quot;,&quot;elbow&quot;:&quot;vertical&quot;,&quot;curved&quot;:0,&quot;rounded&quot;:0};" parent="1" vertex="1">
          <mxGeometry x="220" y="40" width="100" height="560" as="geometry" />
        </mxCell>
        <mxCell id="aM9ryv3xv72pqoxQDRHE-7" value="&lt;font style=&quot;font-size: 8px;&quot;&gt;analyzePIDSensors()&lt;/font&gt;" style="html=1;verticalAlign=bottom;endArrow=block;edgeStyle=elbowEdgeStyle;elbow=vertical;curved=0;rounded=0;" parent="1" edge="1">
          <mxGeometry x="0.0014" relative="1" as="geometry">
            <mxPoint x="90" y="120" as="sourcePoint" />
            <Array as="points">
              <mxPoint x="180" y="120" />
            </Array>
            <mxPoint x="265" y="120" as="targetPoint" />
            <mxPoint as="offset" />
          </mxGeometry>
        </mxCell>
        <mxCell id="6_Bvd0myf7-I_16PaiI7-4" value="&lt;font style=&quot;font-size: 8px;&quot;&gt;DataBase&lt;br&gt;&lt;/font&gt;" style="shape=umlLifeline;perimeter=lifelinePerimeter;whiteSpace=wrap;html=1;container=0;dropTarget=0;collapsible=0;recursiveResize=0;outlineConnect=0;portConstraint=eastwest;newEdgeStyle={&quot;edgeStyle&quot;:&quot;elbowEdgeStyle&quot;,&quot;elbow&quot;:&quot;vertical&quot;,&quot;curved&quot;:0,&quot;rounded&quot;:0};" vertex="1" parent="1">
          <mxGeometry x="370" y="40" width="100" height="560" as="geometry" />
        </mxCell>
        <mxCell id="6_Bvd0myf7-I_16PaiI7-5" value="" style="html=1;points=[];perimeter=orthogonalPerimeter;outlineConnect=0;targetShapes=umlLifeline;portConstraint=eastwest;newEdgeStyle={&quot;edgeStyle&quot;:&quot;elbowEdgeStyle&quot;,&quot;elbow&quot;:&quot;vertical&quot;,&quot;curved&quot;:0,&quot;rounded&quot;:0};" vertex="1" parent="6_Bvd0myf7-I_16PaiI7-4">
          <mxGeometry x="45" y="90" width="10" height="70" as="geometry" />
        </mxCell>
        <mxCell id="6_Bvd0myf7-I_16PaiI7-8" value="&lt;font style=&quot;font-size: 8px;&quot;&gt;&lt;font style=&quot;border-color: var(--border-color); font-size: 8px;&quot;&gt;Database.getpindividual_list&lt;/font&gt;()&lt;/font&gt;" style="endArrow=classic;html=1;rounded=0;" edge="1" parent="1" source="aM9ryv3xv72pqoxQDRHE-5" target="6_Bvd0myf7-I_16PaiI7-5">
          <mxGeometry x="-0.0375" y="10" width="50" height="50" relative="1" as="geometry">
            <mxPoint x="330" y="140" as="sourcePoint" />
            <mxPoint x="360" y="120" as="targetPoint" />
            <Array as="points">
              <mxPoint x="410" y="130" />
            </Array>
            <mxPoint as="offset" />
          </mxGeometry>
        </mxCell>
        <mxCell id="6_Bvd0myf7-I_16PaiI7-9" value="" style="endArrow=openThin;html=1;rounded=0;dashed=1;endFill=0;entryX=1;entryY=1;entryDx=0;entryDy=0;" edge="1" parent="1" source="6_Bvd0myf7-I_16PaiI7-5" target="6_Bvd0myf7-I_16PaiI7-78">
          <mxGeometry width="50" height="50" relative="1" as="geometry">
            <mxPoint x="430.1299999999999" y="190.36699999999996" as="sourcePoint" />
            <mxPoint x="280" y="180" as="targetPoint" />
            <Array as="points">
              <mxPoint x="290" y="190" />
            </Array>
          </mxGeometry>
        </mxCell>
        <mxCell id="6_Bvd0myf7-I_16PaiI7-79" value="&lt;font style=&quot;font-size: 8px;&quot;&gt;PindivList : Vector &amp;lt;String&amp;gt;&lt;/font&gt;" style="edgeLabel;html=1;align=center;verticalAlign=middle;resizable=0;points=[];" vertex="1" connectable="0" parent="6_Bvd0myf7-I_16PaiI7-9">
          <mxGeometry x="-0.0045" y="1" relative="1" as="geometry">
            <mxPoint x="-5" y="-9" as="offset" />
          </mxGeometry>
        </mxCell>
        <mxCell id="6_Bvd0myf7-I_16PaiI7-13" value="" style="rounded=0;whiteSpace=wrap;html=1;" vertex="1" parent="1">
          <mxGeometry x="420" y="140" width="10" height="30" as="geometry" />
        </mxCell>
        <mxCell id="6_Bvd0myf7-I_16PaiI7-25" value="" style="endArrow=classic;html=1;rounded=0;exitX=0.966;exitY=0.327;exitDx=0;exitDy=0;entryX=1;entryY=1;entryDx=0;entryDy=0;exitPerimeter=0;" edge="1" parent="1" source="6_Bvd0myf7-I_16PaiI7-13" target="6_Bvd0myf7-I_16PaiI7-13">
          <mxGeometry width="50" height="50" relative="1" as="geometry">
            <mxPoint x="440" y="250" as="sourcePoint" />
            <mxPoint x="490" y="200" as="targetPoint" />
            <Array as="points">
              <mxPoint x="440" y="150" />
              <mxPoint x="440" y="170" />
            </Array>
          </mxGeometry>
        </mxCell>
        <mxCell id="6_Bvd0myf7-I_16PaiI7-54" value="&lt;font style=&quot;font-size: 8px;&quot;&gt;getPindivList()&lt;/font&gt;" style="edgeLabel;html=1;align=center;verticalAlign=middle;resizable=0;points=[];" vertex="1" connectable="0" parent="6_Bvd0myf7-I_16PaiI7-25">
          <mxGeometry x="0.0727" relative="1" as="geometry">
            <mxPoint x="30" y="-1" as="offset" />
          </mxGeometry>
        </mxCell>
        <mxCell id="6_Bvd0myf7-I_16PaiI7-31" value="" style="endArrow=classic;html=1;rounded=0;entryX=0.052;entryY=0.038;entryDx=0;entryDy=0;entryPerimeter=0;" edge="1" parent="1" source="aM9ryv3xv72pqoxQDRHE-1" target="6_Bvd0myf7-I_16PaiI7-80">
          <mxGeometry width="50" height="50" relative="1" as="geometry">
            <mxPoint x="220" y="290" as="sourcePoint" />
            <mxPoint x="270" y="240" as="targetPoint" />
            <Array as="points">
              <mxPoint x="210" y="200" />
            </Array>
          </mxGeometry>
        </mxCell>
        <mxCell id="6_Bvd0myf7-I_16PaiI7-32" value="&lt;font style=&quot;font-size: 8px;&quot;&gt;PindChoice(String id)&lt;/font&gt;" style="edgeLabel;html=1;align=center;verticalAlign=middle;resizable=0;points=[];" vertex="1" connectable="0" parent="6_Bvd0myf7-I_16PaiI7-31">
          <mxGeometry x="-0.1383" y="-1" relative="1" as="geometry">
            <mxPoint x="10" y="6" as="offset" />
          </mxGeometry>
        </mxCell>
        <mxCell id="6_Bvd0myf7-I_16PaiI7-33" value="" style="rounded=0;whiteSpace=wrap;html=1;" vertex="1" parent="1">
          <mxGeometry x="415" y="220" width="10" height="60" as="geometry" />
        </mxCell>
        <mxCell id="6_Bvd0myf7-I_16PaiI7-34" value="" style="endArrow=classic;html=1;rounded=0;entryX=0;entryY=0;entryDx=0;entryDy=0;" edge="1" parent="1" source="aM9ryv3xv72pqoxQDRHE-5" target="6_Bvd0myf7-I_16PaiI7-33">
          <mxGeometry width="50" height="50" relative="1" as="geometry">
            <mxPoint x="250" y="210" as="sourcePoint" />
            <mxPoint x="300" y="160" as="targetPoint" />
          </mxGeometry>
        </mxCell>
        <mxCell id="6_Bvd0myf7-I_16PaiI7-36" value="&lt;font style=&quot;font-size: 8px;&quot;&gt;getSensorsList(String : idPind)&lt;/font&gt;" style="text;html=1;align=center;verticalAlign=middle;resizable=0;points=[];autosize=1;strokeColor=none;fillColor=none;" vertex="1" parent="1">
          <mxGeometry x="275" y="198" width="130" height="30" as="geometry" />
        </mxCell>
        <mxCell id="6_Bvd0myf7-I_16PaiI7-37" value="" style="endArrow=open;html=1;rounded=0;exitX=0;exitY=1;exitDx=0;exitDy=0;dashed=1;endFill=0;entryX=1.019;entryY=0.896;entryDx=0;entryDy=0;entryPerimeter=0;" edge="1" parent="1" source="6_Bvd0myf7-I_16PaiI7-33" target="6_Bvd0myf7-I_16PaiI7-80">
          <mxGeometry width="50" height="50" relative="1" as="geometry">
            <mxPoint x="260" y="330" as="sourcePoint" />
            <mxPoint x="310" y="280" as="targetPoint" />
          </mxGeometry>
        </mxCell>
        <mxCell id="6_Bvd0myf7-I_16PaiI7-38" value="" style="rounded=0;whiteSpace=wrap;html=1;" vertex="1" parent="1">
          <mxGeometry x="420" y="235" width="10" height="30" as="geometry" />
        </mxCell>
        <mxCell id="6_Bvd0myf7-I_16PaiI7-39" value="" style="endArrow=classic;html=1;rounded=0;exitX=1;exitY=0.133;exitDx=0;exitDy=0;exitPerimeter=0;" edge="1" parent="1" source="6_Bvd0myf7-I_16PaiI7-38">
          <mxGeometry width="50" height="50" relative="1" as="geometry">
            <mxPoint x="430" y="238" as="sourcePoint" />
            <mxPoint x="430" y="260" as="targetPoint" />
            <Array as="points">
              <mxPoint x="440" y="239" />
              <mxPoint x="440" y="260" />
            </Array>
          </mxGeometry>
        </mxCell>
        <mxCell id="6_Bvd0myf7-I_16PaiI7-53" value="&lt;font style=&quot;font-size: 8px;&quot;&gt;getSensorList()&lt;/font&gt;" style="edgeLabel;html=1;align=center;verticalAlign=middle;resizable=0;points=[];" vertex="1" connectable="0" parent="6_Bvd0myf7-I_16PaiI7-39">
          <mxGeometry x="-0.0046" y="-1" relative="1" as="geometry">
            <mxPoint x="31" as="offset" />
          </mxGeometry>
        </mxCell>
        <mxCell id="6_Bvd0myf7-I_16PaiI7-41" value="&lt;font style=&quot;font-size: 8px;&quot;&gt;SensorsList : Vector &amp;lt;String&amp;gt;&lt;/font&gt;" style="text;html=1;align=center;verticalAlign=middle;resizable=0;points=[];autosize=1;strokeColor=none;fillColor=none;strokeWidth=0;" vertex="1" parent="1">
          <mxGeometry x="283" y="256" width="130" height="30" as="geometry" />
        </mxCell>
        <mxCell id="6_Bvd0myf7-I_16PaiI7-42" value="" style="endArrow=open;html=1;rounded=0;endFill=0;dashed=1;exitX=0;exitY=1;exitDx=0;exitDy=0;" edge="1" parent="1" source="6_Bvd0myf7-I_16PaiI7-80">
          <mxGeometry width="50" height="50" relative="1" as="geometry">
            <mxPoint x="250" y="270" as="sourcePoint" />
            <mxPoint x="90" y="290" as="targetPoint" />
            <Array as="points">
              <mxPoint x="260" y="290" />
            </Array>
          </mxGeometry>
        </mxCell>
        <mxCell id="6_Bvd0myf7-I_16PaiI7-43" value="&lt;font style=&quot;font-size: 7px;&quot;&gt;SensorsList : Vector &amp;lt;String&amp;gt;&lt;/font&gt;" style="text;html=1;align=center;verticalAlign=middle;resizable=0;points=[];autosize=1;strokeColor=none;fillColor=none;" vertex="1" parent="1">
          <mxGeometry x="120" y="267" width="110" height="30" as="geometry" />
        </mxCell>
        <mxCell id="6_Bvd0myf7-I_16PaiI7-44" value="" style="endArrow=classic;html=1;rounded=0;entryX=0;entryY=0;entryDx=0;entryDy=0;" edge="1" parent="1" target="6_Bvd0myf7-I_16PaiI7-81">
          <mxGeometry width="50" height="50" relative="1" as="geometry">
            <mxPoint x="90" y="310" as="sourcePoint" />
            <mxPoint x="160" y="290" as="targetPoint" />
            <Array as="points">
              <mxPoint x="240" y="310" />
            </Array>
          </mxGeometry>
        </mxCell>
        <mxCell id="6_Bvd0myf7-I_16PaiI7-45" value="&lt;font style=&quot;font-size: 7px;&quot;&gt;SensorsList : Vector &amp;lt;String&amp;gt;&lt;/font&gt;" style="text;html=1;align=center;verticalAlign=middle;resizable=0;points=[];autosize=1;strokeColor=none;fillColor=none;" vertex="1" parent="1">
          <mxGeometry x="123" y="288" width="110" height="30" as="geometry" />
        </mxCell>
        <mxCell id="6_Bvd0myf7-I_16PaiI7-46" value="&lt;font style=&quot;font-size: 8px;&quot;&gt;PindivList : Vector &amp;lt;String&amp;gt;&lt;/font&gt;" style="text;html=1;align=center;verticalAlign=middle;resizable=0;points=[];autosize=1;strokeColor=none;fillColor=none;" vertex="1" parent="1">
          <mxGeometry x="118" y="167" width="120" height="30" as="geometry" />
        </mxCell>
        <mxCell id="6_Bvd0myf7-I_16PaiI7-48" value="" style="endArrow=openThin;html=1;rounded=0;dashed=1;endFill=0;" edge="1" parent="1">
          <mxGeometry width="50" height="50" relative="1" as="geometry">
            <mxPoint x="268" y="189.84" as="sourcePoint" />
            <mxPoint x="90" y="190" as="targetPoint" />
            <Array as="points">
              <mxPoint x="213" y="189.84" />
              <mxPoint x="143" y="189.84" />
            </Array>
          </mxGeometry>
        </mxCell>
        <mxCell id="6_Bvd0myf7-I_16PaiI7-49" value="&lt;font style=&quot;font-size: 8px;&quot;&gt;getSensorData( String SensorId)&lt;/font&gt;" style="edgeStyle=none;orthogonalLoop=1;jettySize=auto;html=1;rounded=0;endSize=5;entryX=-0.061;entryY=0.133;entryDx=0;entryDy=0;entryPerimeter=0;" edge="1" parent="1" target="6_Bvd0myf7-I_16PaiI7-50">
          <mxGeometry x="-0.0304" y="8" width="100" relative="1" as="geometry">
            <mxPoint x="270" y="318" as="sourcePoint" />
            <mxPoint x="400" y="320" as="targetPoint" />
            <Array as="points" />
            <mxPoint as="offset" />
          </mxGeometry>
        </mxCell>
        <mxCell id="6_Bvd0myf7-I_16PaiI7-50" value="" style="whiteSpace=wrap;html=1;" vertex="1" parent="1">
          <mxGeometry x="415" y="310" width="10" height="60" as="geometry" />
        </mxCell>
        <mxCell id="6_Bvd0myf7-I_16PaiI7-51" value="" style="whiteSpace=wrap;html=1;" vertex="1" parent="1">
          <mxGeometry x="420" y="320" width="10" height="40" as="geometry" />
        </mxCell>
        <mxCell id="6_Bvd0myf7-I_16PaiI7-52" value="&lt;font style=&quot;font-size: 8px;&quot;&gt;getSensorData(String SensorId)&lt;/font&gt;" style="edgeStyle=none;orthogonalLoop=1;jettySize=auto;html=1;rounded=0;entryX=1;entryY=0.75;entryDx=0;entryDy=0;" edge="1" parent="1" target="6_Bvd0myf7-I_16PaiI7-51">
          <mxGeometry y="60" width="100" relative="1" as="geometry">
            <mxPoint x="430" y="330" as="sourcePoint" />
            <mxPoint x="480" y="330" as="targetPoint" />
            <Array as="points">
              <mxPoint x="440" y="330" />
              <mxPoint x="440" y="350" />
            </Array>
            <mxPoint as="offset" />
          </mxGeometry>
        </mxCell>
        <mxCell id="6_Bvd0myf7-I_16PaiI7-57" value="" style="edgeStyle=none;orthogonalLoop=1;jettySize=auto;html=1;rounded=0;exitX=0;exitY=1;exitDx=0;exitDy=0;dashed=1;endArrow=open;endFill=0;entryX=1;entryY=0.75;entryDx=0;entryDy=0;" edge="1" parent="1" source="6_Bvd0myf7-I_16PaiI7-50" target="6_Bvd0myf7-I_16PaiI7-81">
          <mxGeometry width="100" relative="1" as="geometry">
            <mxPoint x="310" y="370" as="sourcePoint" />
            <mxPoint x="410" y="370" as="targetPoint" />
            <Array as="points" />
          </mxGeometry>
        </mxCell>
        <mxCell id="6_Bvd0myf7-I_16PaiI7-58" value="&lt;font style=&quot;font-size: 8px;&quot;&gt;SensorData : Vector &amp;lt;String&amp;gt;&lt;/font&gt;" style="edgeLabel;html=1;align=center;verticalAlign=middle;resizable=0;points=[];" vertex="1" connectable="0" parent="6_Bvd0myf7-I_16PaiI7-57">
          <mxGeometry x="0.078" y="-2" relative="1" as="geometry">
            <mxPoint x="11" y="-8" as="offset" />
          </mxGeometry>
        </mxCell>
        <mxCell id="6_Bvd0myf7-I_16PaiI7-60" value="" style="edgeStyle=none;orthogonalLoop=1;jettySize=auto;html=1;rounded=0;dashed=1;endArrow=open;endFill=0;exitX=0;exitY=1;exitDx=0;exitDy=0;" edge="1" parent="1" source="6_Bvd0myf7-I_16PaiI7-81">
          <mxGeometry width="100" relative="1" as="geometry">
            <mxPoint x="210" y="390" as="sourcePoint" />
            <mxPoint x="90" y="390" as="targetPoint" />
            <Array as="points">
              <mxPoint x="160" y="390" />
            </Array>
          </mxGeometry>
        </mxCell>
        <mxCell id="6_Bvd0myf7-I_16PaiI7-61" value="&lt;font style=&quot;font-size: 8px;&quot;&gt;SensorData:Vect&amp;lt;String&amp;gt;&lt;/font&gt;" style="edgeLabel;html=1;align=center;verticalAlign=middle;resizable=0;points=[];" vertex="1" connectable="0" parent="6_Bvd0myf7-I_16PaiI7-60">
          <mxGeometry x="0.0673" y="1" relative="1" as="geometry">
            <mxPoint x="-1" y="-11" as="offset" />
          </mxGeometry>
        </mxCell>
        <mxCell id="6_Bvd0myf7-I_16PaiI7-62" value="" style="endArrow=classic;html=1;rounded=0;entryX=0;entryY=0;entryDx=0;entryDy=0;" edge="1" parent="1" target="6_Bvd0myf7-I_16PaiI7-82">
          <mxGeometry width="50" height="50" relative="1" as="geometry">
            <mxPoint x="90" y="410" as="sourcePoint" />
            <mxPoint x="230" y="410" as="targetPoint" />
            <Array as="points">
              <mxPoint x="200" y="410" />
            </Array>
          </mxGeometry>
        </mxCell>
        <mxCell id="6_Bvd0myf7-I_16PaiI7-63" value="&lt;font style=&quot;font-size: 8px;&quot;&gt;classify(int isReliable, string sensorID)&lt;/font&gt;" style="edgeLabel;html=1;align=center;verticalAlign=middle;resizable=0;points=[];" vertex="1" connectable="0" parent="6_Bvd0myf7-I_16PaiI7-62">
          <mxGeometry x="-0.0716" y="1" relative="1" as="geometry">
            <mxPoint x="2" y="-9" as="offset" />
          </mxGeometry>
        </mxCell>
        <mxCell id="6_Bvd0myf7-I_16PaiI7-64" value="" style="endArrow=classic;html=1;rounded=0;" edge="1" parent="1" source="aM9ryv3xv72pqoxQDRHE-5">
          <mxGeometry width="50" height="50" relative="1" as="geometry">
            <mxPoint x="270" y="430" as="sourcePoint" />
            <mxPoint x="420" y="430" as="targetPoint" />
            <Array as="points">
              <mxPoint x="375" y="430" />
            </Array>
          </mxGeometry>
        </mxCell>
        <mxCell id="6_Bvd0myf7-I_16PaiI7-65" value="&lt;font style=&quot;font-size: 8px;&quot;&gt;classify(int isReliable, string sensorID)&lt;/font&gt;" style="edgeLabel;html=1;align=center;verticalAlign=middle;resizable=0;points=[];" vertex="1" connectable="0" parent="6_Bvd0myf7-I_16PaiI7-64">
          <mxGeometry x="-0.0716" y="1" relative="1" as="geometry">
            <mxPoint x="8" y="-9" as="offset" />
          </mxGeometry>
        </mxCell>
        <mxCell id="6_Bvd0myf7-I_16PaiI7-67" value="alt" style="shape=umlFrame;whiteSpace=wrap;html=1;pointerEvents=0;recursiveResize=0;container=1;collapsible=0;width=40;height=20;" vertex="1" parent="1">
          <mxGeometry x="390" y="450" width="260" height="110" as="geometry" />
        </mxCell>
        <mxCell id="6_Bvd0myf7-I_16PaiI7-68" value="&lt;font style=&quot;font-size: 8px;&quot;&gt;if[isReliable == 1]&lt;/font&gt;" style="text;html=1;align=center;verticalAlign=middle;resizable=0;points=[];autosize=1;strokeColor=none;fillColor=none;" vertex="1" parent="6_Bvd0myf7-I_16PaiI7-67">
          <mxGeometry x="37" y="-8" width="80" height="30" as="geometry" />
        </mxCell>
        <mxCell id="6_Bvd0myf7-I_16PaiI7-71" value="&lt;font style=&quot;font-size: 8px;&quot;&gt;else&lt;/font&gt;" style="text;html=1;align=center;verticalAlign=middle;resizable=0;points=[];autosize=1;strokeColor=none;fillColor=none;" vertex="1" parent="6_Bvd0myf7-I_16PaiI7-67">
          <mxGeometry x="35" y="22" width="40" height="30" as="geometry" />
        </mxCell>
        <mxCell id="6_Bvd0myf7-I_16PaiI7-72" value="" style="rounded=0;whiteSpace=wrap;html=1;" vertex="1" parent="6_Bvd0myf7-I_16PaiI7-67">
          <mxGeometry x="25" y="50" width="10" height="50" as="geometry" />
        </mxCell>
        <mxCell id="6_Bvd0myf7-I_16PaiI7-73" value="" style="rounded=0;whiteSpace=wrap;html=1;" vertex="1" parent="6_Bvd0myf7-I_16PaiI7-67">
          <mxGeometry x="30" y="60" width="10" height="30" as="geometry" />
        </mxCell>
        <mxCell id="6_Bvd0myf7-I_16PaiI7-75" value="" style="endArrow=classic;html=1;rounded=0;exitX=0.967;exitY=0.333;exitDx=0;exitDy=0;exitPerimeter=0;entryX=1.033;entryY=0.656;entryDx=0;entryDy=0;entryPerimeter=0;" edge="1" parent="6_Bvd0myf7-I_16PaiI7-67" source="6_Bvd0myf7-I_16PaiI7-73" target="6_Bvd0myf7-I_16PaiI7-73">
          <mxGeometry width="50" height="50" relative="1" as="geometry">
            <mxPoint x="75" y="90" as="sourcePoint" />
            <mxPoint x="90" y="50" as="targetPoint" />
            <Array as="points">
              <mxPoint x="60" y="70" />
              <mxPoint x="60" y="80" />
            </Array>
          </mxGeometry>
        </mxCell>
        <mxCell id="6_Bvd0myf7-I_16PaiI7-76" value="&lt;font style=&quot;font-size: 8px;&quot;&gt;getSensor(SensorId : String).setReliable(false)&lt;/font&gt;" style="edgeLabel;html=1;align=center;verticalAlign=middle;resizable=0;points=[];" vertex="1" connectable="0" parent="6_Bvd0myf7-I_16PaiI7-75">
          <mxGeometry x="-0.0135" relative="1" as="geometry">
            <mxPoint x="86" y="-2" as="offset" />
          </mxGeometry>
        </mxCell>
        <mxCell id="6_Bvd0myf7-I_16PaiI7-70" value="" style="endArrow=none;dashed=1;html=1;rounded=0;exitX=0.998;exitY=0.231;exitDx=0;exitDy=0;exitPerimeter=0;entryX=-0.001;entryY=0.231;entryDx=0;entryDy=0;entryPerimeter=0;" edge="1" parent="1" source="6_Bvd0myf7-I_16PaiI7-67" target="6_Bvd0myf7-I_16PaiI7-67">
          <mxGeometry width="50" height="50" relative="1" as="geometry">
            <mxPoint x="460" y="520" as="sourcePoint" />
            <mxPoint x="390" y="480" as="targetPoint" />
          </mxGeometry>
        </mxCell>
        <mxCell id="6_Bvd0myf7-I_16PaiI7-78" value="" style="rounded=0;whiteSpace=wrap;html=1;" vertex="1" parent="1">
          <mxGeometry x="265" y="120" width="10" height="70" as="geometry" />
        </mxCell>
        <mxCell id="6_Bvd0myf7-I_16PaiI7-80" value="" style="rounded=0;whiteSpace=wrap;html=1;" vertex="1" parent="1">
          <mxGeometry x="265" y="196" width="10" height="94" as="geometry" />
        </mxCell>
        <mxCell id="6_Bvd0myf7-I_16PaiI7-81" value="" style="rounded=0;whiteSpace=wrap;html=1;" vertex="1" parent="1">
          <mxGeometry x="265" y="310" width="10" height="80" as="geometry" />
        </mxCell>
        <mxCell id="6_Bvd0myf7-I_16PaiI7-82" value="" style="rounded=0;whiteSpace=wrap;html=1;" vertex="1" parent="1">
          <mxGeometry x="265" y="410" width="10" height="30" as="geometry" />
        </mxCell>
      </root>
    </mxGraphModel>
  </diagram>
</mxfile>
